<?xml version="1.0" encoding="UTF-8"?>
<svg id="katman_2" data-name="katman 2" xmlns="http://www.w3.org/2000/svg" viewBox="0 0 556.17 111.14">
  <g id="katman_1" data-name="katman 1">
    <g>
      <g>
        <path d="M84.42,110.51h-25.61l-29.25-43.63c-1.11-1.58-1.74-3.48-1.74-5.22,0-4.58,3.32-8.54,7.59-9.33,13.44-2.69,20.24-12.01,20.24-20.08,0-7.43-4.58-13.75-13.44-13.75h-21.03v92.01H0V0h43.79c41.58.16,44.11,54.7,9.01,63.4l31.62,47.11Z"/>
        <path d="M154.94,105.13c0,3.32-2.69,6.01-6.01,6.01-1.74,0-3.48-.95-4.58-2.37l-8.06-10.12c-6.48,8.22-16.28,12.49-26.24,12.49-17.86,0-36.2-13.44-36.2-40.79,0-22.45,18.18-40.47,40.63-40.47s40.47,18.02,40.47,40.63v34.62ZM134.7,70.35c0-12.17-9.17-22.13-20.24-22.13s-20.39,9.96-20.39,22.13,9.17,22.13,20.39,22.13,20.08-9.8,20.24-21.97v-.16Z"/>
        <path d="M167.74,20.87c-3.95,0-7.75-2.37-9.49-6.32-2.21-5.22.32-11.23,5.53-13.44,1.27-.47,2.69-.79,3.95-.79,4.11,0,7.9,2.37,9.49,6.32,2.21,5.22-.32,11.38-5.53,13.44-1.27.47-2.69.79-3.95.79ZM157.47,110.51V30.51h20.24v80h-20.24Z"/>
        <path d="M237.15,67.51h.16-.16c0-13.91-8.54-20.55-17.07-20.55s-17.55,6.96-17.55,20.55v43h-20.24V36.05c0-3.32,2.85-6.17,6.17-6.17,1.74,0,3.32.63,4.58,1.9l8.54,8.85c6.48-7.11,15.49-10.75,24.5-10.75,15.65,0,30.99,10.91,30.99,33.67h-.16l.47,46.96h-20.24v-43Z"/>
      </g>
      <g>
        <path d="M289.03,76v-33.56h21.85v-20.46h-21.85V6.77c0-3.32-2.62-5.94-5.94-5.94-1.75,0-3.32.88-4.37,2.1l-25.7,31.12c-.88,1.05-1.23,2.09-1.23,3.32,0,2.8,2.28,5.07,5.08,5.07h9.61v37.06c0,22.9,8.39,31.47,36.36,31.47,4.2,0,8.74-.18,13.81-.53v-18.7c-23.42-.35-27.62-4.2-27.62-15.74Z"/>
        <path d="M452.58,90.63c-33.09.39-40.22-32.82-58.8-53.34-2.81-3.35-6.09-6.28-9.75-8.69-6.52-4.47-14.3-7.33-23.99-7.33v.02c-59.57.67-59.51,88.76-5.44,89.84,11.02,0,21.86-4.72,29.02-13.81l8.92,11.19c1.22,1.57,3.15,2.62,5.07,2.62,3.67,0,6.64-2.97,6.64-6.64.02-4.37-1.53-8.58-4.28-11.97-4.99-6.15-9.12-12.76-12.96-18.89-1.64-2.78-5.83-2.35-6.82.73-7.12,24.96-42.48,19.97-43.24-8.33,0-13.7,10.44-24.74,23.09-24.5h0c33.11.72,32.44,68.52,90.93,69.56.27.04,1.3.01,1.74.04v-.03c20.27-.73,37.33-15.15,41.93-34.22h-23.43c-3.3,7.75-10.35,13.17-18.62,13.75Z"/>
        <path d="M451.1,21.46c-16.24,0-30.45,8.52-38.34,21.36-1.92,3.12-1.84,7.07.1,10.17l.03.05c3.39,5.41,6.64,10.6,10.17,15.21,1.8,2.35,5.49,1.03,5.48-1.93,0-.04,0-.07,0-.11,0-13.46,10.14-24.47,22.56-24.47,8.91,0,16.6,5.77,20.1,13.98h23.43c-4.72-19.75-22.56-34.26-43.53-34.26Z"/>
        <path d="M528.54,76v-33.56h21.86v-20.46h-21.86V6.77c0-3.32-2.62-5.94-5.94-5.94-1.75,0-3.32.88-4.37,2.1l-25.7,31.12c-.87,1.05-1.22,2.09-1.22,3.32,0,2.8,2.27,5.07,5.07,5.07h9.61v37.06c0,22.9,8.39,31.47,36.37,31.47,4.19,0,8.74-.18,13.81-.53v-18.7c-23.43-.35-27.63-4.2-27.63-15.74Z"/>
      </g>
    </g>
  </g>
</svg>